<svg xmlns="http://www.w3.org/2000/svg" xmlns:xlink="http://www.w3.org/1999/xlink" contentStyleType="text/css" data-diagram-type="DESCRIPTION" height="1259px" preserveAspectRatio="none" style="width:1167px;height:1259px;background:#FFFFFF;" version="1.1" viewBox="0 0 1167 1259" width="1167px" zoomAndPan="magnify"><defs/><g><rect fill="#FFFFCC" height="26.6406" rx="2.5" ry="2.5" style="stroke:#FFDD88;stroke-width:3;" width="1156.63" x="5" y="5"/><text fill="#000000" font-family="monospace" font-size="10" lengthAdjust="spacing" textLength="355.21" x="10" y="20">Please&#160;use&#160;'!option&#160;handwritten&#160;true'&#160;to&#160;enable&#160;handwritten</text><!--cluster Sistema--><g class="cluster" data-entity="Sistema" data-source-line="38" data-uid="ent0003" id="cluster_Sistema"><rect fill="#F8F8F8" height="1157" rx="2.5" ry="2.5" style="stroke:#AAAAAA;stroke-width:1;" width="794.3" x="352.33" y="43.6406"/><text fill="#000000" font-family="sans-serif" font-size="14" font-weight="bold" lengthAdjust="spacing" textLength="382.7305" x="558.1148" y="58.6357">Sistema de Gesti&#243;n de Laboratorios de C&#243;mputo</text></g><!--entity UC_RegistrarLab--><g class="entity" data-entity="UC_RegistrarLab" data-source-line="41" data-uid="ent0004" id="entity_UC_RegistrarLab"><ellipse cx="508.8371" cy="1090.6441" fill="#ADD8E6" rx="110.1171" ry="24.4234" style="stroke:#5555CC;stroke-width:1.5;"/><text fill="#333333" font-family="sans-serif" font-size="14" lengthAdjust="spacing" textLength="198.1328" x="409.7707" y="1095.2925">Registrar Nuevo Laboratorio</text></g><!--entity UC_IngresarUso--><g class="entity" data-entity="UC_IngresarUso" data-source-line="42" data-uid="ent0005" id="entity_UC_IngresarUso"><ellipse cx="994.4884" cy="937.6423" fill="#ADD8E6" rx="111.6584" ry="24.7317" style="stroke:#5555CC;stroke-width:1.5;"/><text fill="#333333" font-family="sans-serif" font-size="14" lengthAdjust="spacing" textLength="201.4619" x="893.7575" y="942.2907">Ingresar Datos de Uso Diario</text></g><!--entity UC_GenerarReportes--><g class="entity" data-entity="UC_GenerarReportes" data-source-line="43" data-uid="ent0006" id="entity_UC_GenerarReportes"><ellipse cx="508.8357" cy="553.6398" fill="#ADD8E6" rx="113.6957" ry="25.1391" style="stroke:#5555CC;stroke-width:1.5;"/><text fill="#333333" font-family="sans-serif" font-size="14" lengthAdjust="spacing" textLength="205.8506" x="405.9104" y="558.2882">Generar Reportes Semanales</text></g><!--entity UC_FiltrarDatos--><g class="entity" data-entity="UC_FiltrarDatos" data-source-line="44" data-uid="ent0007" id="entity_UC_FiltrarDatos"><ellipse cx="508.8449" cy="198.6396" fill="#ADD8E6" rx="83.5949" ry="19.119" style="stroke:#5555CC;stroke-width:1.5;"/><text fill="#333333" font-family="sans-serif" font-size="14" lengthAdjust="spacing" textLength="139.0771" x="439.3063" y="203.288">Filtrar Datos de Uso</text></g><!--entity UC_GenerarCandidatos--><g class="entity" data-entity="UC_GenerarCandidatos" data-source-line="45" data-uid="ent0008" id="entity_UC_GenerarCandidatos"><ellipse cx="508.843" cy="1000.6432" fill="#ADD8E6" rx="140.513" ry="30.5026" style="stroke:#5555CC;stroke-width:1.5;"/><text fill="#333333" font-family="sans-serif" font-size="14" lengthAdjust="spacing" textLength="262.6777" x="377.5041" y="1005.2917">Generar Candidatos para Renovaci&#243;n</text></g><!--entity UC_Salir--><g class="entity" data-entity="UC_Salir" data-source-line="46" data-uid="ent0009" id="entity_UC_Salir"><ellipse cx="508.8389" cy="1167.6444" fill="#D3D3D3" rx="74.5689" ry="17.3138" style="stroke:#5555CC;stroke-width:1.5;"/><text fill="#333333" font-family="sans-serif" font-size="14" lengthAdjust="spacing" textLength="117.6807" x="449.9986" y="1172.2928">Salir del Sistema</text></g><!--entity UC_SeleccionarLab--><g class="entity" data-entity="UC_SeleccionarLab" data-source-line="49" data-uid="ent0010" id="entity_UC_SeleccionarLab"><ellipse cx="994.4945" cy="563.6375" fill="#90EE90" rx="95.4345" ry="21.4869" style="stroke:#5555CC;stroke-width:1.5;"/><text fill="#333333" font-family="sans-serif" font-size="14" lengthAdjust="spacing" textLength="165.9424" x="911.5234" y="568.286">Seleccionar Laboratorio</text></g><!--entity UC_MostrarResultados--><g class="entity" data-entity="UC_MostrarResultados" data-source-line="50" data-uid="ent0011" id="entity_UC_MostrarResultados"><ellipse cx="508.8365" cy="103.6399" fill="#90EE90" rx="110.9965" ry="24.5993" style="stroke:#5555CC;stroke-width:1.5;"/><text fill="#333333" font-family="sans-serif" font-size="14" lengthAdjust="spacing" textLength="200.0332" x="408.8199" y="108.2884">Mostrar Resultados Filtrados</text></g><!--entity UC_IngresarHoras--><g class="entity" data-entity="UC_IngresarHoras" data-source-line="53" data-uid="ent0012" id="entity_UC_IngresarHoras"><ellipse cx="994.489" cy="741.6384" fill="#90EE90" rx="136.139" ry="29.6278" style="stroke:#5555CC;stroke-width:1.5;"/><text fill="#333333" font-family="sans-serif" font-size="14" lengthAdjust="spacing" textLength="253.5039" x="867.737" y="746.2869">Ingresar Horas y Usuario por Equipo</text></g><!--entity UC_RegistrarFallo--><g class="entity" data-entity="UC_RegistrarFallo" data-source-line="54" data-uid="ent0013" id="entity_UC_RegistrarFallo"><ellipse cx="994.4881" cy="833.6422" fill="#90EE90" rx="124.9081" ry="27.3816" style="stroke:#5555CC;stroke-width:1.5;"/><text fill="#333333" font-family="sans-serif" font-size="14" lengthAdjust="spacing" textLength="229.7969" x="879.5896" y="838.2907">Registrar Posible Fallo de Equipo</text></g><!--entity UC_Criticos--><g class="entity" data-entity="UC_Criticos" data-source-line="56" data-uid="ent0014" id="entity_UC_Criticos"><ellipse cx="508.8363" cy="453.6399" fill="#90EE90" rx="105.0963" ry="23.4193" style="stroke:#5555CC;stroke-width:1.5;"/><text fill="#333333" font-family="sans-serif" font-size="14" lengthAdjust="spacing" textLength="187.2295" x="415.2215" y="458.2883">Identificar Equipos Cr&#237;ticos</text></g><!--entity UC_Subutilizados--><g class="entity" data-entity="UC_Subutilizados" data-source-line="57" data-uid="ent0015" id="entity_UC_Subutilizados"><ellipse cx="508.8374" cy="279.6441" fill="#90EE90" rx="124.1674" ry="27.2335" style="stroke:#5555CC;stroke-width:1.5;"/><text fill="#333333" font-family="sans-serif" font-size="14" lengthAdjust="spacing" textLength="228.2246" x="394.7251" y="284.2925">Identificar Equipos Subutilizados</text></g><!--entity UC_Frecuentes--><g class="entity" data-entity="UC_Frecuentes" data-source-line="58" data-uid="ent0016" id="entity_UC_Frecuentes"><ellipse cx="508.8378" cy="368.6442" fill="#90EE90" rx="119.3678" ry="26.2736" style="stroke:#5555CC;stroke-width:1.5;"/><text fill="#333333" font-family="sans-serif" font-size="14" lengthAdjust="spacing" textLength="218.0049" x="399.8353" y="373.2926">Identificar Usuarios Frecuentes</text></g><!--entity UC_FiltrarLab--><g class="entity" data-entity="UC_FiltrarLab" data-source-line="60" data-uid="ent0017" id="entity_UC_FiltrarLab"><ellipse cx="994.4933" cy="656.6393" fill="#90EE90" rx="90.0933" ry="20.4187" style="stroke:#5555CC;stroke-width:1.5;"/><text fill="#333333" font-family="sans-serif" font-size="14" lengthAdjust="spacing" textLength="153.9521" x="917.5172" y="661.2877">Filtrar por Laboratorio</text></g><!--entity UC_FiltrarFecha--><g class="entity" data-entity="UC_FiltrarFecha" data-source-line="61" data-uid="ent0018" id="entity_UC_FiltrarFecha"><ellipse cx="994.4882" cy="268.6423" fill="#90EE90" rx="73.6082" ry="17.1216" style="stroke:#5555CC;stroke-width:1.5;"/><text fill="#333333" font-family="sans-serif" font-size="14" lengthAdjust="spacing" textLength="115.3359" x="936.8202" y="273.2907">Filtrar por Fecha</text></g><!--entity UC_FiltrarUsuario--><g class="entity" data-entity="UC_FiltrarUsuario" data-source-line="62" data-uid="ent0019" id="entity_UC_FiltrarUsuario"><ellipse cx="994.4907" cy="198.6368" fill="#90EE90" rx="78.3307" ry="18.0661" style="stroke:#5555CC;stroke-width:1.5;"/><text fill="#333333" font-family="sans-serif" font-size="14" lengthAdjust="spacing" textLength="126.7246" x="931.1283" y="203.2852">Filtrar por Usuario</text></g><!--entity UC_FiltrarFallos--><g class="entity" data-entity="UC_FiltrarFallos" data-source-line="63" data-uid="ent0020" id="entity_UC_FiltrarFallos"><ellipse cx="994.4863" cy="123.6419" fill="#90EE90" rx="99.7063" ry="22.3413" style="stroke:#5555CC;stroke-width:1.5;"/><text fill="#333333" font-family="sans-serif" font-size="14" lengthAdjust="spacing" textLength="175.4102" x="906.7812" y="128.2903">Filtrar Equipos con Fallos</text></g><!--entity UC_EvaluarEdad--><g class="entity" data-entity="UC_EvaluarEdad" data-source-line="65" data-uid="ent0021" id="entity_UC_EvaluarEdad"><ellipse cx="508.8383" cy="894.6443" fill="#90EE90" rx="110.2183" ry="24.4437" style="stroke:#5555CC;stroke-width:1.5;"/><text fill="#333333" font-family="sans-serif" font-size="14" lengthAdjust="spacing" textLength="198.3516" x="409.6625" y="899.2927">Evaluar por Edad del Equipo</text></g><!--entity UC_EvaluarUso--><g class="entity" data-entity="UC_EvaluarUso" data-source-line="66" data-uid="ent0022" id="entity_UC_EvaluarUso"><ellipse cx="508.8443" cy="636.6415" fill="#90EE90" rx="100.4043" ry="22.4809" style="stroke:#5555CC;stroke-width:1.5;"/><text fill="#333333" font-family="sans-serif" font-size="14" lengthAdjust="spacing" textLength="176.9482" x="420.3702" y="641.2899">Evaluar por Uso Excesivo</text></g><!--entity UC_EvaluarFallos--><g class="entity" data-entity="UC_EvaluarFallos" data-source-line="67" data-uid="ent0023" id="entity_UC_EvaluarFallos"><ellipse cx="508.8384" cy="719.6443" fill="#90EE90" rx="114.4684" ry="25.2937" style="stroke:#5555CC;stroke-width:1.5;"/><text fill="#333333" font-family="sans-serif" font-size="14" lengthAdjust="spacing" textLength="207.5117" x="405.0825" y="724.2927">Evaluar por Fallos Frecuentes</text></g><!--entity UC_OrdenarCandidatos--><g class="entity" data-entity="UC_OrdenarCandidatos" data-source-line="68" data-uid="ent0024" id="entity_UC_OrdenarCandidatos"><ellipse cx="508.8448" cy="807.6416" fill="#90EE90" rx="127.6048" ry="27.921" style="stroke:#5555CC;stroke-width:1.5;"/><text fill="#333333" font-family="sans-serif" font-size="14" lengthAdjust="spacing" textLength="235.5117" x="391.089" y="812.29">Ordenar Candidatos por Prioridad</text></g><!--entity Admin--><g class="entity" data-entity="Admin" data-source-line="35" data-uid="ent0002" id="entity_Admin"><ellipse cx="123.6641" cy="687.8306" fill="#FFA500" rx="8" ry="8" style="stroke:#000000;stroke-width:2;"/><path d="M123.6641,695.8306 L123.6641,722.8306 M110.6641,703.8306 L136.6641,703.8306 M123.6641,722.8306 L110.6641,737.8306 M123.6641,722.8306 L136.6641,737.8306" fill="none" style="stroke:#000000;stroke-width:2;"/><text fill="#000000" font-family="sans-serif" font-size="16" lengthAdjust="spacing" textLength="235.3281" x="6" y="755.6822">Administrador de Laboratorio</text></g><!--link Admin to UC_RegistrarLab--><g class="link" data-entity-1="Admin" data-entity-2="UC_RegistrarLab" data-source-line="73" data-uid="lnk25" id="link_Admin_UC_RegistrarLab"><path d="M139.62,759.9006 C167.78,831.2606 235.78,976.9706 344.33,1048.6406 C365.12,1062.3706 390.13,1071.6106 414.27,1077.8306" fill="none" id="Admin-UC_RegistrarLab" style="stroke:#111111;stroke-width:2;"/></g><!--link Admin to UC_IngresarUso--><g class="link" data-entity-1="Admin" data-entity-2="UC_IngresarUso" data-source-line="74" data-uid="lnk26" id="link_Admin_UC_IngresarUso"><path d="M126.34,759.6106 C133.16,863.3606 167.88,1133.1906 344.33,1202.6406 C470.48,1252.2906 521.02,1246.3306 649.35,1202.6406 C792.84,1153.8006 923.16,1018.2906 972.53,962.3206" fill="none" id="Admin-UC_IngresarUso" style="stroke:#111111;stroke-width:2;"/></g><!--link Admin to UC_GenerarReportes--><g class="link" data-entity-1="Admin" data-entity-2="UC_GenerarReportes" data-source-line="75" data-uid="lnk27" id="link_Admin_UC_GenerarReportes"><path d="M133.06,677.5806 C148.31,615.0206 187.11,497.8206 271.33,447.6406 C296.15,432.8506 314.25,429.0106 336.33,447.6406 C352.52,461.3106 330.73,478.3906 344.33,494.6406 C362.53,516.4006 389.41,530.1406 416.14,538.8106" fill="none" id="Admin-UC_GenerarReportes" style="stroke:#111111;stroke-width:2;"/></g><!--link Admin to UC_FiltrarDatos--><g class="link" data-entity-1="Admin" data-entity-2="UC_FiltrarDatos" data-source-line="76" data-uid="lnk28" id="link_Admin_UC_FiltrarDatos"><path d="M130.77,677.3806 C146.98,583.1706 200.19,351.3706 344.33,234.6406 C367.26,216.0706 397.71,206.5706 426.11,201.8606" fill="none" id="Admin-UC_FiltrarDatos" style="stroke:#111111;stroke-width:2;"/></g><!--link Admin to UC_GenerarCandidatos--><g class="link" data-entity-1="Admin" data-entity-2="UC_GenerarCandidatos" data-source-line="77" data-uid="lnk29" id="link_Admin_UC_GenerarCandidatos"><path d="M140.27,677.6206 C174.55,593.0206 259.48,413.1606 336.33,488.6406 C354.09,506.0906 330.11,916.2106 344.33,936.6406 C358.43,956.9106 379.98,970.7606 402.85,980.2306" fill="none" id="Admin-UC_GenerarCandidatos" style="stroke:#111111;stroke-width:2;"/></g><!--link Admin to UC_Salir--><g class="link" data-entity-1="Admin" data-entity-2="UC_Salir" data-source-line="78" data-uid="lnk30" id="link_Admin_UC_Salir"><path d="M131.77,759.6906 C149.44,847.4306 204.49,1051.8206 344.33,1132.6406 C372.48,1148.9106 407.29,1157.6506 437.56,1162.3206" fill="none" id="Admin-UC_Salir" style="stroke:#111111;stroke-width:2;"/></g><!--link UC_IngresarUso to UC_SeleccionarLab--><g class="link" data-entity-1="UC_IngresarUso" data-entity-2="UC_SeleccionarLab" data-source-line="81" data-uid="lnk31" id="link_UC_IngresarUso_UC_SeleccionarLab"><path d="M924.71,917.9406 C901.57,908.8206 876.98,896.0606 858.35,878.6406 C781.97,807.2506 701.45,754.4206 757.46,666.1406 C791.03,613.2406 852.7303,588.8852 907.1703,576.4652" fill="none" id="UC_IngresarUso-to-UC_SeleccionarLab" style="stroke:#111111;stroke-width:2;stroke-dasharray:7.0,7.0;"/><polygon fill="#111111" points="913.02,575.1306,903.3557,573.2327,908.1453,576.2428,905.1352,581.0323,913.02,575.1306" style="stroke:#111111;stroke-width:2;"/><text fill="#000000" font-family="sans-serif" font-size="13" lengthAdjust="spacing" textLength="63.0068" x="722.35" y="679.2075">&#171;include&#187;</text></g><!--link UC_FiltrarDatos to UC_MostrarResultados--><g class="link" data-entity-1="UC_FiltrarDatos" data-entity-2="UC_MostrarResultados" data-source-line="82" data-uid="lnk32" id="link_UC_FiltrarDatos_UC_MostrarResultados"><path d="M508.84,179.4206 C508.84,164.7806 508.84,150.5106 508.84,134.6106" fill="none" id="UC_FiltrarDatos-to-UC_MostrarResultados" style="stroke:#111111;stroke-width:2;stroke-dasharray:7.0,7.0;"/><polygon fill="#111111" points="508.84,128.6106,504.84,137.6106,508.84,133.6106,512.84,137.6106,508.84,128.6106" style="stroke:#111111;stroke-width:2;"/><text fill="#000000" font-family="sans-serif" font-size="13" lengthAdjust="spacing" textLength="63.0068" x="465.84" y="158.4475">&#171;include&#187;</text></g><!--link UC_IngresarUso to UC_IngresarHoras--><g class="link" data-entity-1="UC_IngresarUso" data-entity-2="UC_IngresarHoras" data-source-line="84" data-uid="lnk33" id="link_UC_IngresarUso_UC_IngresarHoras"><path d="M922.35,918.4606 C832.87,891.3006 698.87,837.4806 757.46,771.1406 C786.9,737.8106 827.2817,727.3739 871.2317,726.3239" fill="none" id="UC_IngresarUso-to-UC_IngresarHoras" style="stroke:#111111;stroke-width:2;stroke-dasharray:7.0,7.0;"/><polygon fill="#111111" points="877.23,726.1806,868.137,722.3967,872.2314,726.3,868.3281,730.3944,877.23,726.1806" style="stroke:#111111;stroke-width:2;"/><text fill="#000000" font-family="sans-serif" font-size="13" lengthAdjust="spacing" textLength="63.0068" x="722.35" y="784.2075">&#171;include&#187;</text></g><!--link UC_IngresarUso to UC_RegistrarFallo--><g class="link" data-entity-1="UC_IngresarUso" data-entity-2="UC_RegistrarFallo" data-source-line="85" data-uid="lnk34" id="link_UC_IngresarUso_UC_RegistrarFallo"><path d="M994.49,912.4706 C994.49,897.0806 994.49,883.3706 994.49,867.5106" fill="none" id="UC_IngresarUso-to-UC_RegistrarFallo" style="stroke:#111111;stroke-width:2;stroke-dasharray:7.0,7.0;"/><polygon fill="#111111" points="994.49,861.5106,990.49,870.5106,994.49,866.5106,998.49,870.5106,994.49,861.5106" style="stroke:#111111;stroke-width:2;"/><text fill="#000000" font-family="sans-serif" font-size="13" lengthAdjust="spacing" textLength="63.0068" x="951.49" y="891.5375">&#171;include&#187;</text></g><!--link UC_GenerarReportes to UC_Criticos--><g class="link" data-entity-1="UC_GenerarReportes" data-entity-2="UC_Criticos" data-source-line="87" data-uid="lnk35" id="link_UC_GenerarReportes_UC_Criticos"><path d="M508.84,528.1506 C508.84,512.5306 508.84,498.6606 508.84,483.3706" fill="none" id="UC_GenerarReportes-to-UC_Criticos" style="stroke:#111111;stroke-width:2;stroke-dasharray:7.0,7.0;"/><polygon fill="#111111" points="508.84,477.3706,504.84,486.3706,508.84,482.3706,512.84,486.3706,508.84,477.3706" style="stroke:#111111;stroke-width:2;"/><text fill="#000000" font-family="sans-serif" font-size="13" lengthAdjust="spacing" textLength="63.0068" x="465.84" y="507.3475">&#171;include&#187;</text></g><!--link UC_GenerarReportes to UC_Subutilizados--><g class="link" data-entity-1="UC_GenerarReportes" data-entity-2="UC_Subutilizados" data-source-line="88" data-uid="lnk36" id="link_UC_GenerarReportes_UC_Subutilizados"><path d="M411.02,566.8306 C373.83,566.1206 334.45,557.3506 309.5,529.1406 C299.45,517.7806 243.58,434.1606 344.33,324.6406 C358.56,309.1706 371.8757,300.7706 391.8957,293.8906" fill="none" id="UC_GenerarReportes-to-UC_Subutilizados" style="stroke:#111111;stroke-width:2;stroke-dasharray:7.0,7.0;"/><polygon fill="#111111" points="397.57,291.9406,387.7586,291.0828,392.8414,293.5656,390.3586,298.6485,397.57,291.9406" style="stroke:#111111;stroke-width:2;"/><text fill="#000000" font-family="sans-serif" font-size="13" lengthAdjust="spacing" textLength="63.0068" x="272.33" y="525.2075">&#171;include&#187;</text></g><!--link UC_GenerarReportes to UC_Frecuentes--><g class="link" data-entity-1="UC_GenerarReportes" data-entity-2="UC_Frecuentes" data-source-line="89" data-uid="lnk37" id="link_UC_GenerarReportes_UC_Frecuentes"><path d="M394.82,552.6806 C362.31,546.3906 330.15,533.1706 309.5,507.1406 C287.32,479.2006 283.03,464.7906 344.33,412.6406 C361.44,398.0806 377.1574,390.0293 398.8574,383.4593" fill="none" id="UC_GenerarReportes-to-UC_Frecuentes" style="stroke:#111111;stroke-width:2;stroke-dasharray:7.0,7.0;"/><polygon fill="#111111" points="404.6,381.7206,394.827,380.5002,399.8145,383.1695,397.1452,388.157,404.6,381.7206" style="stroke:#111111;stroke-width:2;"/><text fill="#000000" font-family="sans-serif" font-size="13" lengthAdjust="spacing" textLength="63.0068" x="272.33" y="503.2075">&#171;include&#187;</text></g><!--link UC_GenerarCandidatos to UC_EvaluarEdad--><g class="link" data-entity-1="UC_GenerarCandidatos" data-entity-2="UC_EvaluarEdad" data-source-line="91" data-uid="lnk38" id="link_UC_GenerarCandidatos_UC_EvaluarEdad"><path d="M508.84,969.7006 C508.84,953.6906 508.84,940.4106 508.84,925.4006" fill="none" id="UC_GenerarCandidatos-to-UC_EvaluarEdad" style="stroke:#111111;stroke-width:2;stroke-dasharray:7.0,7.0;"/><polygon fill="#111111" points="508.84,919.4006,504.84,928.4006,508.84,924.4006,512.84,928.4006,508.84,919.4006" style="stroke:#111111;stroke-width:2;"/><text fill="#000000" font-family="sans-serif" font-size="13" lengthAdjust="spacing" textLength="63.0068" x="465.84" y="949.1775">&#171;include&#187;</text></g><!--link UC_GenerarCandidatos to UC_EvaluarUso--><g class="link" data-entity-1="UC_GenerarCandidatos" data-entity-2="UC_EvaluarUso" data-source-line="92" data-uid="lnk39" id="link_UC_GenerarCandidatos_UC_EvaluarUso"><path d="M407.28,979.2606 C383.6,969.8006 360.59,956.2006 344.33,936.6406 C286.5,867.1006 285.83,823.4406 309.5,736.1406 C317.52,706.5706 319.75,694.9406 344.33,676.6406 C365.2,661.1106 385.4567,652.903 410.6767,647.023" fill="none" id="UC_GenerarCandidatos-to-UC_EvaluarUso" style="stroke:#111111;stroke-width:2;stroke-dasharray:7.0,7.0;"/><polygon fill="#111111" points="416.52,645.6606,406.8468,643.8086,411.6506,646.7959,408.6633,651.5997,416.52,645.6606" style="stroke:#111111;stroke-width:2;"/><text fill="#000000" font-family="sans-serif" font-size="13" lengthAdjust="spacing" textLength="63.0068" x="272.33" y="749.2075">&#171;include&#187;</text></g><!--link UC_GenerarCandidatos to UC_EvaluarFallos--><g class="link" data-entity-1="UC_GenerarCandidatos" data-entity-2="UC_EvaluarFallos" data-source-line="93" data-uid="lnk40" id="link_UC_GenerarCandidatos_UC_EvaluarFallos"><path d="M376.57,989.9306 C350.49,981.5206 326.1,967.8906 309.5,946.1406 C300.98,934.9906 271.15,839.5306 344.33,762.6406 C359.9,746.2806 375.1068,737.5971 396.8368,731.0271" fill="none" id="UC_GenerarCandidatos-to-UC_EvaluarFallos" style="stroke:#111111;stroke-width:2;stroke-dasharray:7.0,7.0;"/><polygon fill="#111111" points="402.58,729.2906,392.8075,728.0665,397.794,730.7377,395.1228,735.7241,402.58,729.2906" style="stroke:#111111;stroke-width:2;"/><text fill="#000000" font-family="sans-serif" font-size="13" lengthAdjust="spacing" textLength="63.0068" x="272.33" y="942.2075">&#171;include&#187;</text></g><!--link UC_GenerarCandidatos to UC_OrdenarCandidatos--><g class="link" data-entity-1="UC_GenerarCandidatos" data-entity-2="UC_OrdenarCandidatos" data-source-line="94" data-uid="lnk41" id="link_UC_GenerarCandidatos_UC_OrdenarCandidatos"><path d="M421.77,976.3506 C351.05,952.1906 269.15,911.2306 309.5,859.1406 C327.77,835.5406 349.5339,823.4116 378.3839,815.6916" fill="none" id="UC_GenerarCandidatos-to-UC_OrdenarCandidatos" style="stroke:#111111;stroke-width:2;stroke-dasharray:7.0,7.0;"/><polygon fill="#111111" points="384.18,814.1406,374.4519,812.603,379.3499,815.4331,376.5199,820.3311,384.18,814.1406" style="stroke:#111111;stroke-width:2;"/><text fill="#000000" font-family="sans-serif" font-size="13" lengthAdjust="spacing" textLength="63.0068" x="272.33" y="872.2075">&#171;include&#187;</text></g><!--link UC_FiltrarDatos to UC_FiltrarLab--><g class="link" data-entity-1="UC_FiltrarDatos" data-entity-2="UC_FiltrarLab" data-source-line="98" data-uid="lnk42" id="link_UC_FiltrarDatos_UC_FiltrarLab"><path d="M591.42,202.3506 C613.4,207.4806 635.03,217.1106 649.35,234.6406 C690.04,284.4406 632.72,768.3606 679.35,812.6406 C727.38,858.2406 776.08,853.2906 828.35,812.6406 C871.07,779.4306 820.57,733.3806 858.35,694.6406 C872.73,679.9006 886.5699,672.3955 906.3899,666.7455" fill="none" id="UC_FiltrarDatos-to-UC_FiltrarLab" style="stroke:#111111;stroke-width:2;stroke-dasharray:7.0,7.0;"/><polygon fill="#111111" points="912.16,665.1006,902.4082,663.7212,907.3516,666.4713,904.6014,671.4147,912.16,665.1006" style="stroke:#111111;stroke-width:2;"/><text fill="#000000" font-family="sans-serif" font-size="13" lengthAdjust="spacing" textLength="147.3608" x="680.35" y="808.7075">&#171;include&#187; (si opci&#243;n 1)</text></g><!--link UC_FiltrarDatos to UC_FiltrarFecha--><g class="link" data-entity-1="UC_FiltrarDatos" data-entity-2="UC_FiltrarFecha" data-source-line="99" data-uid="lnk43" id="link_UC_FiltrarDatos_UC_FiltrarFecha"><path d="M579.93,209.0506 C610.47,213.5606 646.68,218.8906 679.35,223.6406 C766.59,236.3206 861.5498,249.8856 924.9598,258.9056" fill="none" id="UC_FiltrarDatos-to-UC_FiltrarFecha" style="stroke:#111111;stroke-width:2;stroke-dasharray:7.0,7.0;"/><polygon fill="#111111" points="930.9,259.7506,922.553,254.523,925.9498,259.0465,921.4264,262.4433,930.9,259.7506" style="stroke:#111111;stroke-width:2;"/><text fill="#000000" font-family="sans-serif" font-size="13" lengthAdjust="spacing" textLength="147.3608" x="680.35" y="219.7075">&#171;include&#187; (si opci&#243;n 2)</text></g><!--link UC_FiltrarDatos to UC_FiltrarUsuario--><g class="link" data-entity-1="UC_FiltrarDatos" data-entity-2="UC_FiltrarUsuario" data-source-line="100" data-uid="lnk44" id="link_UC_FiltrarDatos_UC_FiltrarUsuario"><path d="M592.71,198.6406 C683.27,198.6406 821.24,198.6406 909.73,198.6406" fill="none" id="UC_FiltrarDatos-to-UC_FiltrarUsuario" style="stroke:#111111;stroke-width:2;stroke-dasharray:7.0,7.0;"/><polygon fill="#111111" points="915.73,198.6406,906.73,194.6406,910.73,198.6406,906.73,202.6406,915.73,198.6406" style="stroke:#111111;stroke-width:2;"/><text fill="#000000" font-family="sans-serif" font-size="13" lengthAdjust="spacing" textLength="147.3608" x="680.35" y="194.7075">&#171;include&#187; (si opci&#243;n 3)</text></g><!--link UC_FiltrarDatos to UC_FiltrarFallos--><g class="link" data-entity-1="UC_FiltrarDatos" data-entity-2="UC_FiltrarFallos" data-source-line="101" data-uid="lnk45" id="link_UC_FiltrarDatos_UC_FiltrarFallos"><path d="M579.14,187.9006 C666.9,174.2906 811.9908,151.7899 905.4508,137.2999" fill="none" id="UC_FiltrarDatos-to-UC_FiltrarFallos" style="stroke:#111111;stroke-width:2;stroke-dasharray:7.0,7.0;"/><polygon fill="#111111" points="911.38,136.3806,901.8734,133.8067,906.439,137.1467,903.0991,141.7123,911.38,136.3806" style="stroke:#111111;stroke-width:2;"/><text fill="#000000" font-family="sans-serif" font-size="13" lengthAdjust="spacing" textLength="147.3608" x="680.35" y="146.7075">&#171;include&#187; (si opci&#243;n 4)</text></g><!--link UC_FiltrarLab to UC_SeleccionarLab--><g class="link" data-entity-1="UC_FiltrarLab" data-entity-2="UC_SeleccionarLab" data-source-line="104" data-uid="lnk46" id="link_UC_FiltrarLab_UC_SeleccionarLab"><path d="M994.49,636.0006 C994.49,621.0206 994.49,606.7806 994.49,591.5206" fill="none" id="UC_FiltrarLab-to-UC_SeleccionarLab" style="stroke:#111111;stroke-width:2;stroke-dasharray:7.0,7.0;"/><polygon fill="#111111" points="994.49,585.5206,990.49,594.5206,994.49,590.5206,998.49,594.5206,994.49,585.5206" style="stroke:#111111;stroke-width:2;"/><text fill="#000000" font-family="sans-serif" font-size="13" lengthAdjust="spacing" textLength="63.0068" x="951.49" y="615.2475">&#171;include&#187;</text></g><!--SRC=[bLTBRnit4BxhLmpiW-M3qZgFjWWC0wuifG7w2ApwN51SIY9CaHjowKUC_9WUSyWfjrprnpfyx2xtPQdhWtSvCz-yPoZ1LWKK2ZHVRmh8k6Qqu4gEHYSmcKnWgkIAhwqcbE- -ISWOp4p1XO8n_jzzAJXLfuvnP6wvp8acMzWGcTrhNXHCmee8mnAQDOmIm-1f1F0heRThhQpCfaee3STNLxFPVEueIcTCnzCt-4odU7gfjRgFXw_yWuTp9Oi5_yJWx7NyQdCi2gQPAXvpbb1_za-bwkyDfxUI6GDdBzwKgfg7dnCl22qGvAcfy4V_D4pwgUrBnTDM-xA1dsDao7eWIlDVt5yR-T8_1rdqN40QNheWU1jIEm6Yn9b_K6B3iIeerrImicekNO2OyOKHWdLqcMsvvARG9CDFbFYTB9KcIEFg28W1pm37U2RNB2a_B2CMH0Gi481jYSTrXOgiWi5HUOoexnYMPwpKH8DntzFTjsrkYw2kb7aQeKjH6J61ySOe-A2vf3md0jqON_cs85k6rdX3y6tttR5k2PVZqz02K9NtqJLRUryr_6dPdUeuUpFzfs916XmBrtvBOLcAybwkCOe8SeMYbMLNd2Gm9O-ZzAEymm0wIwvPhdI1xYpGR-aSAp4YHyNGZpFdmdkK6bCYH5eWFM_65CS3ppoZgpCqIwgxC5vQzYIS_P0B8dYZC4g0G0X269x7WHoVdsEEXStOnGMCvnRphR3AWTW7BZ38-Ah0sEKarueo9wUM21ahgfFp1HECEWXqiYVV2Tbb_FmSnkzF0JLNPZAPmlsXGW5TCsD5WLrZ84GPtqhCo9EmzCFskx_T_UlU2oA4bntxQ73tge0zOEDbxgFZQ5MMlw6F1XuHpBgI12mVc7sqFEzKP-0SyBHkbW_Ay2Lsz1nDKdxPDD0gna1lULZRbs6VyXMdf3J7m5JllhfbLOLkYXlAVGyPrGUoi4kBouz_IdFGE3m4BKOBqub3nRgHKc7L9uFEbLteOjrJPP5SpvIEAId0dD4DQOdwiqE4enyjyR8MzW2K8QLAXcoRjXd-S30CipiYR3Habf7CJu5cjKGMJnsm9aLn7J5xm3xdTss8UhO-Yn1DxgOrClMub23zXTjSjkOZWk8UmloY3oLOv4lO1dh-Sxb4hvaWSRJvnJnnKw0S0kDB6cdXxaTClU12vuV5Z3YjfTKW96keSTvQBGrQkZJwX6eN6rG_t7jyQqpp6maqUcdnd-5icsi6cc69uFK7LA7ZnRMrGrzSz0phjodugBtlWaXt5ZUb-XKr1sH7JrUWDGExEjhBF8XLuwwZef-_ETKE54h6rw1TITq6eRHDX_GC2Rcm_5-Ps8K7YtNxhULRfn2nvjOUp8NFNsn-O2PdbDS7CAOM0HNOPftcvQqJZBjecZMQIW1_IAayW8UQFUdSkV2MlVjES9nkFUQ9kUS5tPp0Hyl0s_g82gJNuxnVELdyx-tQVLsvqkZMTSnglLBUDflCS6-Ny-ViT8zuM2l302_t0PIBPHZYrLuRUbBVG7XzwjAPfDBVK6bvQN8PSW75Nm9BlliYGJAtB_1d2AQhllo9UYsFcl7RFrp-0m00]--></g></svg>